<svg id="svg" version="1.1" xmlns="http://www.w3.org/2000/svg" xmlns:xlink="http://www.w3.org/1999/xlink" width="400" height="187.5" viewBox="0, 0, 400,187.5"><g id="svgg"><path id="path0" d="M0.000 93.765 L 0.000 187.529 200.000 187.529 L 400.000 187.529 400.000 93.765 L 400.000 0.000 200.000 0.000 L 0.000 0.000 0.000 93.765 M196.405 25.402 C 209.325 27.203,217.257 32.352,220.174 40.830 C 221.555 44.845,221.171 45.081,212.724 45.392 L 206.508 45.621 205.642 45.202 C 205.077 44.929,204.487 44.408,203.947 43.706 C 200.972 39.839,197.782 38.575,190.999 38.573 C 183.929 38.570,179.584 41.239,178.928 45.986 C 178.203 51.235,180.837 53.536,190.155 55.791 C 191.753 56.178,194.960 56.997,197.281 57.611 C 199.602 58.225,202.893 59.093,204.594 59.540 C 216.794 62.745,222.834 68.097,224.175 76.887 C 226.207 90.217,220.111 100.034,207.302 104.054 C 203.271 105.319,203.264 105.379,206.286 113.174 C 206.726 114.308,207.445 116.376,207.885 117.768 C 208.736 120.462,209.995 124.067,212.471 130.895 C 213.312 133.216,214.325 136.043,214.722 137.178 C 215.119 138.312,215.734 140.000,216.089 140.928 C 216.444 141.857,217.212 144.193,217.796 146.121 C 218.380 148.049,219.540 151.509,220.372 153.810 C 222.339 159.245,222.365 160.338,220.531 160.338 C 219.135 160.338,218.606 159.574,217.348 155.743 C 214.199 146.149,212.881 142.944,211.854 142.383 C 210.868 141.844,193.146 141.780,191.945 142.311 C 190.494 142.953,189.595 144.955,187.132 153.024 C 185.076 159.759,184.670 160.525,183.151 160.525 C 181.309 160.525,181.301 159.118,183.119 154.337 C 185.012 149.356,185.156 148.941,186.596 144.304 C 189.172 136.002,191.981 127.759,193.943 122.738 C 197.667 113.211,199.349 108.061,199.083 107.000 C 198.863 106.125,198.529 106.080,192.124 106.049 C 184.892 106.013,181.517 105.418,176.086 103.221 C 168.551 100.172,161.295 93.224,163.101 90.789 C 163.824 89.815,164.177 89.787,173.371 89.973 L 181.810 90.145 183.497 90.760 C 187.655 92.276,187.954 92.327,192.593 92.338 C 202.089 92.360,206.870 89.966,207.977 84.637 C 209.185 78.818,204.774 75.230,192.804 72.294 C 183.852 70.098,181.182 69.356,178.153 68.221 C 165.428 63.450,160.378 55.546,162.757 44.119 C 165.494 30.969,179.690 23.073,196.405 25.402 M341.397 25.516 C 353.975 26.613,363.141 32.470,365.958 41.211 C 367.122 44.823,366.617 45.114,358.721 45.371 C 351.249 45.615,351.268 45.619,349.301 43.289 C 346.233 39.654,343.511 38.583,337.271 38.554 C 328.916 38.516,324.647 41.351,324.457 47.063 C 324.259 53.011,326.594 54.186,348.878 59.353 C 364.757 63.034,371.634 71.350,369.843 84.703 C 368.648 93.610,364.662 98.984,356.372 102.866 C 352.844 104.518,352.498 104.701,352.416 104.957 C 352.235 105.520,353.249 105.632,360.458 105.845 L 367.726 106.059 368.205 106.508 C 368.773 107.042,368.847 107.998,368.354 108.444 C 367.569 109.154,367.181 109.176,354.556 109.228 C 340.895 109.284,341.628 109.217,340.975 110.473 C 340.666 111.068,340.856 127.462,341.183 128.440 C 341.678 129.917,341.181 129.853,352.812 129.958 C 362.292 130.044,363.210 130.080,363.672 130.382 C 364.618 131.002,364.563 132.286,363.558 133.033 C 363.036 133.422,362.889 133.427,353.057 133.438 C 340.713 133.451,341.115 133.365,340.714 136.075 C 340.377 138.349,340.778 155.198,341.190 156.057 C 341.824 157.380,341.364 157.337,354.761 157.337 C 368.739 157.337,369.255 157.390,369.728 158.881 C 370.426 161.082,368.196 161.305,347.679 161.089 C 335.400 160.960,336.676 162.148,336.909 151.058 C 337.000 146.724,337.060 142.124,337.041 140.835 C 337.022 139.545,336.982 131.556,336.952 123.080 C 336.897 107.750,336.894 107.667,336.502 107.140 C 335.809 106.210,335.196 105.997,332.583 105.777 C 322.161 104.899,314.425 100.703,309.767 93.400 C 307.917 90.498,309.624 90.086,322.832 90.244 L 327.520 90.300 329.208 90.928 C 335.486 93.261,343.933 93.242,348.798 90.883 C 354.197 88.267,355.398 81.572,351.166 77.695 C 348.673 75.411,346.195 74.370,338.490 72.370 C 318.241 67.114,311.885 63.387,309.155 55.168 C 304.611 41.491,313.672 28.759,330.052 25.802 C 332.804 25.306,337.594 25.185,341.397 25.516 M148.002 27.307 C 149.496 28.078,148.841 30.826,145.394 38.255 C 143.765 41.766,144.678 41.553,131.618 41.473 C 119.833 41.401,120.103 41.376,119.358 42.619 C 118.938 43.320,118.914 46.423,119.281 52.591 C 119.592 57.808,119.535 57.753,124.560 57.769 C 135.215 57.803,134.933 57.622,134.916 64.416 C 134.899 71.636,135.287 71.305,126.667 71.445 C 119.999 71.553,119.885 71.575,119.362 72.827 C 118.700 74.411,118.870 87.702,119.567 88.897 C 120.220 90.014,120.161 90.006,128.364 90.031 C 147.786 90.090,148.437 90.142,149.367 91.721 C 149.988 92.778,150.054 101.672,149.454 103.539 C 148.754 105.713,148.634 105.686,159.836 105.846 C 168.607 105.971,168.939 106.012,169.288 107.013 C 170.032 109.148,169.486 109.234,154.055 109.421 C 142.687 109.558,142.676 109.560,142.127 110.587 C 141.699 111.389,141.758 127.532,142.193 128.511 C 142.775 129.822,142.617 129.805,153.849 129.752 C 162.893 129.709,163.862 129.734,164.413 130.022 C 165.946 130.824,165.902 132.668,164.331 133.449 C 163.656 133.784,163.103 133.799,153.552 133.744 C 142.403 133.679,142.683 133.651,142.010 134.884 C 141.370 136.054,141.773 155.243,142.456 156.164 C 143.178 157.136,143.229 157.142,150.867 157.169 C 154.787 157.183,160.638 157.248,163.869 157.313 L 169.745 157.431 170.292 158.043 C 171.209 159.069,170.864 160.249,169.487 160.801 C 168.335 161.261,139.824 161.297,138.728 160.839 C 137.171 160.189,137.045 159.392,137.380 152.368 C 137.727 145.110,137.758 138.581,137.486 130.520 C 137.332 125.960,137.322 122.584,137.453 119.081 C 137.555 116.348,137.640 112.838,137.642 111.282 C 137.647 108.245,137.843 107.182,138.594 106.127 L 139.025 105.523 138.612 105.189 C 137.938 104.643,136.563 104.587,126.510 104.692 C 114.612 104.816,104.290 104.554,103.334 104.104 C 101.922 103.440,101.920 103.427,101.936 94.890 C 101.944 90.713,101.952 82.738,101.954 77.168 C 101.957 71.599,101.989 64.173,102.027 60.666 C 102.119 52.099,102.110 39.778,102.008 34.037 C 101.915 28.837,102.002 28.363,103.202 27.485 C 103.728 27.100,103.839 27.098,124.080 27.067 C 135.271 27.050,144.484 26.979,144.553 26.910 C 144.753 26.708,147.440 27.018,148.002 27.307 M296.859 27.333 C 298.398 28.102,297.418 30.267,291.193 39.850 C 289.279 42.797,281.138 56.419,279.369 59.634 C 277.074 63.808,275.601 66.285,273.536 69.443 C 269.783 75.185,270.136 73.105,270.136 89.494 L 270.136 103.132 269.566 103.703 C 268.891 104.379,267.658 104.639,265.114 104.640 C 261.404 104.643,261.289 105.351,264.649 107.514 C 268.037 109.695,269.197 111.300,268.145 112.352 C 267.544 112.953,266.603 112.738,264.957 111.622 C 261.454 109.250,259.580 108.673,255.415 108.682 C 245.622 108.705,239.021 114.324,236.754 124.565 C 233.425 139.607,237.917 152.785,247.851 157.125 C 252.750 159.265,259.750 158.778,264.425 155.973 C 266.716 154.598,266.896 153.762,266.817 144.907 C 266.740 136.410,267.249 137.032,260.272 136.896 C 255.006 136.794,254.665 136.717,254.665 135.636 C 254.665 134.176,255.109 134.083,262.106 134.083 C 270.559 134.083,269.904 133.546,270.071 140.619 C 270.433 155.846,270.448 155.674,268.606 157.315 C 262.606 162.663,249.682 163.097,242.313 158.198 C 234.170 152.784,229.408 136.872,232.440 125.204 C 235.216 114.519,241.144 107.863,249.900 105.599 C 252.226 104.998,252.694 104.795,252.976 104.268 C 253.526 103.240,253.669 76.355,253.133 74.785 C 252.967 74.300,251.143 71.093,249.080 67.659 C 247.017 64.225,244.634 60.150,243.786 58.603 C 242.938 57.056,241.463 54.524,240.510 52.977 C 236.586 46.611,236.633 47.098,239.270 40.038 C 243.339 29.146,243.195 29.442,244.423 29.442 C 245.416 29.442,248.622 34.217,252.607 41.632 C 255.907 47.772,260.325 55.026,261.169 55.690 C 262.562 56.785,262.878 56.415,268.451 47.164 C 269.820 44.892,273.390 38.661,273.931 37.600 C 274.537 36.411,277.718 31.061,278.805 29.403 C 280.129 27.384,280.337 27.305,284.669 27.181 C 293.045 26.941,296.152 26.980,296.859 27.333 M59.962 27.480 C 61.621 28.174,62.209 29.444,65.748 39.995 C 68.505 48.213,69.724 51.381,73.882 61.135 C 75.616 65.203,76.929 68.829,78.670 74.355 C 80.805 81.137,82.433 85.479,84.856 90.858 C 88.486 98.916,89.690 102.558,89.092 103.676 C 88.502 104.777,86.000 105.036,79.468 104.670 C 73.780 104.352,73.968 104.542,70.980 96.109 C 69.539 92.042,69.513 91.982,68.847 91.264 C 67.968 90.315,67.950 90.312,60.914 90.111 C 52.373 89.867,53.232 90.400,50.940 83.926 C 48.726 77.671,48.436 77.992,56.446 77.838 C 63.889 77.694,64.270 77.407,62.567 73.230 C 62.314 72.611,61.711 71.008,61.225 69.667 C 60.739 68.326,59.666 65.541,58.840 63.479 C 58.013 61.416,56.724 58.040,55.974 55.977 C 53.051 47.931,52.972 47.767,51.999 47.669 C 51.064 47.575,50.641 48.318,49.225 52.532 C 48.519 54.633,47.445 57.618,46.838 59.165 C 46.232 60.713,45.454 62.780,45.111 63.760 C 44.768 64.740,43.622 67.651,42.566 70.230 C 40.021 76.442,38.516 80.282,36.760 85.045 C 30.762 101.312,29.948 103.238,28.818 103.836 C 28.164 104.182,18.773 104.564,16.696 104.329 C 14.351 104.064,14.020 102.252,15.705 98.913 C 15.911 98.505,16.523 96.948,17.066 95.452 C 17.608 93.957,19.053 90.399,20.276 87.546 C 22.562 82.213,23.556 79.573,26.939 69.855 C 28.802 64.500,31.208 58.114,32.201 55.884 C 34.087 51.649,37.598 42.428,40.328 34.535 C 42.258 28.957,42.774 27.892,43.753 27.466 C 44.683 27.062,58.990 27.074,59.962 27.480 M92.726 106.435 C 93.562 106.983,93.614 107.469,93.814 116.643 C 94.068 128.278,94.061 132.240,93.776 137.319 C 93.585 140.717,93.582 142.932,93.760 148.196 C 94.001 155.330,94.073 155.907,94.809 156.599 L 95.295 157.056 107.797 157.152 C 116.790 157.221,120.440 157.310,120.798 157.468 C 122.570 158.254,122.467 160.307,120.625 160.918 C 119.395 161.326,91.818 161.277,90.909 160.865 C 89.388 160.175,89.509 162.579,89.557 133.942 C 89.603 107.398,89.606 107.300,90.399 106.507 C 90.850 106.055,92.088 106.017,92.726 106.435 M318.367 106.782 L 318.894 107.234 319.044 120.893 C 319.282 142.584,318.977 147.095,316.919 152.359 C 314.475 158.609,308.986 162.025,301.386 162.025 C 292.676 162.025,287.153 157.781,285.050 149.470 C 283.905 144.945,283.800 141.805,284.054 119.955 L 284.201 107.421 284.727 106.969 C 285.399 106.391,286.190 106.391,286.862 106.969 L 287.389 107.421 287.515 116.205 C 287.584 121.036,287.734 126.676,287.848 128.739 C 287.972 130.995,288.006 134.694,287.933 138.022 C 287.642 151.225,291.107 156.848,300.186 157.903 C 307.257 158.725,312.948 154.811,314.369 148.148 C 315.226 144.125,315.264 143.246,315.348 125.469 C 315.399 114.881,315.500 108.244,315.619 107.804 C 315.989 106.428,317.362 105.917,318.367 106.782 M201.177 112.658 C 200.638 113.273,200.327 114.111,199.349 117.581 C 198.077 122.096,196.664 126.530,194.724 132.094 C 192.270 139.131,191.809 138.688,201.782 138.879 C 211.441 139.064,211.792 138.871,210.099 134.326 C 209.723 133.316,207.964 128.170,206.191 122.892 C 202.457 111.777,202.275 111.405,201.177 112.658 " stroke="none" fill="#3f3f38" fill-rule="evenodd"></path><path id="path1" d="M186.945 25.130 C 173.982 26.624,164.917 33.740,162.757 44.119 C 160.378 55.546,165.428 63.450,178.153 68.221 C 181.182 69.356,183.852 70.098,192.804 72.294 C 204.774 75.230,209.185 78.818,207.977 84.637 C 206.870 89.966,202.089 92.360,192.593 92.338 C 187.954 92.327,187.655 92.276,183.497 90.760 L 181.810 90.145 173.371 89.973 C 164.177 89.787,163.824 89.815,163.101 90.789 C 161.295 93.224,168.551 100.172,176.086 103.221 C 181.517 105.418,184.892 106.013,192.124 106.049 C 198.529 106.080,198.863 106.125,199.083 107.000 C 199.349 108.061,197.667 113.211,193.943 122.738 C 191.981 127.759,189.172 136.002,186.596 144.304 C 185.156 148.941,185.012 149.356,183.119 154.337 C 181.301 159.118,181.309 160.525,183.151 160.525 C 184.670 160.525,185.076 159.759,187.132 153.024 C 189.595 144.955,190.494 142.953,191.945 142.311 C 193.146 141.780,210.868 141.844,211.854 142.383 C 212.881 142.944,214.199 146.149,217.348 155.743 C 218.606 159.574,219.135 160.338,220.531 160.338 C 222.365 160.338,222.339 159.245,220.372 153.810 C 219.540 151.509,218.380 148.049,217.796 146.121 C 217.212 144.193,216.444 141.857,216.089 140.928 C 215.734 140.000,215.119 138.312,214.722 137.178 C 214.325 136.043,213.312 133.216,212.471 130.895 C 209.995 124.067,208.736 120.462,207.885 117.768 C 207.445 116.376,206.726 114.308,206.286 113.174 C 203.264 105.379,203.271 105.319,207.302 104.054 C 220.111 100.034,226.207 90.217,224.175 76.887 C 222.834 68.097,216.794 62.745,204.594 59.540 C 202.893 59.093,199.602 58.225,197.281 57.611 C 194.960 56.997,191.753 56.178,190.155 55.791 C 180.837 53.536,178.203 51.235,178.928 45.986 C 179.584 41.239,183.929 38.570,190.999 38.573 C 197.782 38.575,200.972 39.839,203.947 43.706 C 204.487 44.408,205.077 44.929,205.642 45.202 L 206.508 45.621 212.724 45.392 C 221.860 45.056,222.232 44.616,218.940 38.046 C 214.672 29.529,200.038 23.621,186.945 25.130 M332.489 25.448 C 315.409 26.792,304.390 40.826,309.155 55.168 C 311.885 63.387,318.241 67.114,338.490 72.370 C 346.195 74.370,348.673 75.411,351.166 77.695 C 355.398 81.572,354.197 88.267,348.798 90.883 C 343.933 93.242,335.486 93.261,329.208 90.928 L 327.520 90.300 322.832 90.244 C 309.624 90.086,307.917 90.498,309.767 93.400 C 314.425 100.703,322.161 104.899,332.583 105.777 C 335.196 105.997,335.809 106.210,336.502 107.140 C 336.894 107.667,336.897 107.750,336.952 123.080 C 336.982 131.556,337.022 139.545,337.041 140.835 C 337.060 142.124,337.000 146.724,336.909 151.058 C 336.724 159.858,336.738 159.983,338.000 160.674 C 339.187 161.323,367.589 161.319,368.797 160.669 C 369.874 160.089,370.050 158.932,369.185 158.119 C 368.422 157.402,367.233 157.337,354.761 157.337 C 341.364 157.337,341.824 157.380,341.190 156.057 C 340.778 155.198,340.377 138.349,340.714 136.075 C 341.115 133.365,340.713 133.451,353.057 133.438 C 362.889 133.427,363.036 133.422,363.558 133.033 C 364.563 132.286,364.618 131.002,363.672 130.382 C 363.210 130.080,362.292 130.044,352.812 129.958 C 341.181 129.853,341.678 129.917,341.183 128.440 C 340.856 127.462,340.666 111.068,340.975 110.473 C 341.628 109.217,340.895 109.284,354.556 109.228 C 367.181 109.176,367.569 109.154,368.354 108.444 C 368.847 107.998,368.773 107.042,368.205 106.508 L 367.726 106.059 360.458 105.845 C 353.249 105.632,352.235 105.520,352.416 104.957 C 352.498 104.701,352.844 104.518,356.372 102.866 C 364.662 98.984,368.648 93.610,369.843 84.703 C 371.634 71.350,364.757 63.034,348.878 59.353 C 326.594 54.186,324.259 53.011,324.457 47.063 C 324.647 41.351,328.916 38.516,337.271 38.554 C 343.511 38.583,346.233 39.654,349.301 43.289 C 351.268 45.619,351.249 45.615,358.721 45.371 C 366.617 45.114,367.122 44.823,365.958 41.211 C 362.482 30.425,349.136 24.139,332.489 25.448 M144.553 26.910 C 144.484 26.979,135.271 27.050,124.080 27.067 C 103.839 27.098,103.728 27.100,103.202 27.485 C 102.002 28.363,101.915 28.837,102.008 34.037 C 102.110 39.778,102.119 52.099,102.027 60.666 C 101.989 64.173,101.957 71.599,101.954 77.168 C 101.952 82.738,101.944 90.713,101.936 94.890 C 101.920 103.427,101.922 103.440,103.334 104.104 C 104.290 104.554,114.612 104.816,126.510 104.692 C 136.563 104.587,137.938 104.643,138.612 105.189 L 139.025 105.523 138.594 106.127 C 137.843 107.182,137.647 108.245,137.642 111.282 C 137.640 112.838,137.555 116.348,137.453 119.081 C 137.322 122.584,137.332 125.960,137.486 130.520 C 137.758 138.581,137.727 145.110,137.380 152.368 C 137.045 159.392,137.171 160.189,138.728 160.839 C 139.824 161.297,168.335 161.261,169.487 160.801 C 170.864 160.249,171.209 159.069,170.292 158.043 L 169.745 157.431 163.869 157.313 C 160.638 157.248,154.787 157.183,150.867 157.169 C 143.229 157.142,143.178 157.136,142.456 156.164 C 141.773 155.243,141.370 136.054,142.010 134.884 C 142.683 133.651,142.403 133.679,153.552 133.744 C 163.103 133.799,163.656 133.784,164.331 133.449 C 165.902 132.668,165.946 130.824,164.413 130.022 C 163.862 129.734,162.893 129.709,153.849 129.752 C 142.617 129.805,142.775 129.822,142.193 128.511 C 141.758 127.532,141.699 111.389,142.127 110.587 C 142.676 109.560,142.687 109.558,154.055 109.421 C 169.486 109.234,170.032 109.148,169.288 107.013 C 168.939 106.012,168.607 105.971,159.836 105.846 C 148.634 105.686,148.754 105.713,149.454 103.539 C 150.054 101.672,149.988 92.778,149.367 91.721 C 148.437 90.142,147.786 90.090,128.364 90.031 C 120.161 90.006,120.220 90.014,119.567 88.897 C 118.870 87.702,118.700 74.411,119.362 72.827 C 119.885 71.575,119.999 71.553,126.667 71.445 C 135.287 71.305,134.899 71.636,134.916 64.416 C 134.933 57.622,135.215 57.803,124.560 57.769 C 119.535 57.753,119.592 57.808,119.281 52.591 C 118.914 46.423,118.938 43.320,119.358 42.619 C 120.103 41.376,119.833 41.401,131.618 41.473 C 144.678 41.553,143.765 41.766,145.394 38.255 C 148.001 32.636,149.216 28.886,148.726 27.971 C 148.339 27.248,145.047 26.410,144.553 26.910 M284.669 27.181 C 280.337 27.305,280.129 27.384,278.805 29.403 C 277.718 31.061,274.537 36.411,273.931 37.600 C 273.390 38.661,269.820 44.892,268.451 47.164 C 262.878 56.415,262.562 56.785,261.169 55.690 C 260.325 55.026,255.907 47.772,252.607 41.632 C 248.622 34.217,245.416 29.442,244.423 29.442 C 243.195 29.442,243.339 29.146,239.270 40.038 C 236.633 47.098,236.586 46.611,240.510 52.977 C 241.463 54.524,242.938 57.056,243.786 58.603 C 244.634 60.150,247.017 64.225,249.080 67.659 C 251.143 71.093,252.967 74.300,253.133 74.785 C 253.669 76.355,253.526 103.240,252.976 104.268 C 252.694 104.795,252.226 104.998,249.900 105.599 C 241.144 107.863,235.216 114.519,232.440 125.204 C 229.408 136.872,234.170 152.784,242.313 158.198 C 249.682 163.097,262.606 162.663,268.606 157.315 C 270.448 155.674,270.433 155.846,270.071 140.619 C 269.904 133.546,270.559 134.083,262.106 134.083 C 255.109 134.083,254.665 134.176,254.665 135.636 C 254.665 136.717,255.006 136.794,260.272 136.896 C 267.249 137.032,266.740 136.410,266.817 144.907 C 266.906 154.816,266.763 155.186,262.088 157.130 C 252.146 161.265,240.845 155.857,237.440 145.335 C 234.450 136.096,235.364 124.217,239.608 117.151 C 244.816 108.478,256.539 105.922,264.957 111.622 C 266.603 112.738,267.544 112.953,268.145 112.352 C 269.197 111.300,268.037 109.695,264.649 107.514 C 261.289 105.351,261.404 104.643,265.114 104.640 C 267.658 104.639,268.891 104.379,269.566 103.703 L 270.136 103.132 270.136 89.494 C 270.136 73.105,269.783 75.185,273.536 69.443 C 275.601 66.285,277.074 63.808,279.369 59.634 C 281.138 56.419,289.279 42.797,291.193 39.850 C 295.603 33.061,297.656 29.372,297.574 28.380 C 297.455 26.930,296.502 26.842,284.669 27.181 M43.753 27.466 C 42.774 27.892,42.258 28.957,40.328 34.535 C 37.598 42.428,34.087 51.649,32.201 55.884 C 31.208 58.114,28.802 64.500,26.939 69.855 C 23.556 79.573,22.562 82.213,20.276 87.546 C 19.053 90.399,17.608 93.957,17.066 95.452 C 16.523 96.948,15.911 98.505,15.705 98.913 C 14.020 102.252,14.351 104.064,16.696 104.329 C 18.773 104.564,28.164 104.182,28.818 103.836 C 29.948 103.238,30.762 101.312,36.760 85.045 C 38.516 80.282,40.021 76.442,42.566 70.230 C 43.622 67.651,44.768 64.740,45.111 63.760 C 45.454 62.780,46.232 60.713,46.838 59.165 C 47.445 57.618,48.519 54.633,49.225 52.532 C 50.641 48.318,51.064 47.575,51.999 47.669 C 52.972 47.767,53.051 47.931,55.974 55.977 C 56.724 58.040,58.013 61.416,58.840 63.479 C 59.666 65.541,60.739 68.326,61.225 69.667 C 61.711 71.008,62.314 72.611,62.567 73.230 C 64.270 77.407,63.889 77.694,56.446 77.838 C 50.557 77.951,50.110 78.021,49.716 78.886 C 49.402 79.576,49.405 79.588,50.940 83.926 C 53.232 90.400,52.373 89.867,60.914 90.111 C 67.950 90.312,67.968 90.315,68.847 91.264 C 69.513 91.982,69.539 92.042,70.980 96.109 C 73.968 104.542,73.780 104.352,79.468 104.670 C 86.000 105.036,88.502 104.777,89.092 103.676 C 89.690 102.558,88.486 98.916,84.856 90.858 C 82.433 85.479,80.805 81.137,78.670 74.355 C 76.929 68.829,75.616 65.203,73.882 61.135 C 69.724 51.381,68.505 48.213,65.748 39.995 C 62.209 29.444,61.621 28.174,59.962 27.480 C 58.990 27.074,44.683 27.062,43.753 27.466 M90.399 106.507 C 89.606 107.300,89.603 107.398,89.557 133.942 C 89.509 162.579,89.388 160.175,90.909 160.865 C 91.818 161.277,119.395 161.326,120.625 160.918 C 122.467 160.307,122.570 158.254,120.798 157.468 C 120.440 157.310,116.790 157.221,107.797 157.152 L 95.295 157.056 94.809 156.599 C 94.073 155.907,94.001 155.330,93.760 148.196 C 93.582 142.932,93.585 140.717,93.776 137.319 C 94.157 130.535,93.881 108.606,93.399 107.326 C 92.968 106.182,91.205 105.700,90.399 106.507 M316.298 106.714 C 315.447 107.384,315.433 107.664,315.348 125.469 C 315.264 143.246,315.226 144.125,314.369 148.148 C 312.948 154.811,307.257 158.725,300.186 157.903 C 291.107 156.848,287.642 151.225,287.933 138.022 C 288.006 134.694,287.972 130.995,287.848 128.739 C 287.734 126.676,287.584 121.036,287.515 116.205 L 287.389 107.421 286.862 106.969 C 286.190 106.391,285.399 106.391,284.727 106.969 L 284.201 107.421 284.054 119.955 C 283.800 141.805,283.905 144.945,285.050 149.470 C 287.153 157.781,292.676 162.025,301.386 162.025 C 308.986 162.025,314.475 158.609,316.919 152.359 C 318.977 147.095,319.282 142.584,319.044 120.893 L 318.894 107.234 318.367 106.782 C 317.723 106.228,316.949 106.202,316.298 106.714 M202.651 112.812 C 202.825 113.077,204.418 117.613,206.191 122.892 C 207.964 128.170,209.723 133.316,210.099 134.326 C 211.792 138.871,211.441 139.064,201.782 138.879 C 191.809 138.688,192.270 139.131,194.724 132.094 C 196.664 126.530,198.077 122.096,199.349 117.581 C 200.793 112.454,201.627 111.249,202.651 112.812 " stroke="none" fill="#f4f4f3" fill-rule="evenodd"></path></g></svg>